<svg width="14" height="14" viewBox="0 0 14 14" fill="none" xmlns="http://www.w3.org/2000/svg">
<g clip-path="url(#clip0_7_93)">
<g opacity="0.9">
<path d="M5.4127 12.375C5.30743 12.375 5.20215 12.3354 5.12286 12.2547L2.50059 9.63245C2.34063 9.47249 2.34063 9.21272 2.50059 9.05276C2.66055 8.89279 2.92032 8.89279 3.08028 9.05276L5.70254 11.675C5.8625 11.835 5.8625 12.0948 5.70254 12.2547C5.62325 12.3354 5.51797 12.375 5.4127 12.375Z" fill="#F7B21B"/>
</g>
<g opacity="0.9">
<path d="M5.41542 7.61307C5.31015 7.61307 5.20624 7.57342 5.12558 7.49276L2.50058 4.87461C2.34062 4.71465 2.33925 4.45489 2.49921 4.29493C2.65917 4.13497 2.91894 4.1336 3.0789 4.29356L5.7039 6.91171C5.86386 7.07167 5.86523 7.33143 5.70527 7.49139C5.62597 7.57342 5.5207 7.61307 5.41542 7.61307Z" fill="#F7B21B"/>
</g>
<g opacity="0.9">
<path d="M5.41269 9.9961C5.30741 9.9961 5.20214 9.95645 5.12284 9.87579L2.50604 7.25899C2.34608 7.09903 2.34608 6.83926 2.50604 6.6793C2.66601 6.51934 2.92577 6.51934 3.08573 6.6793L5.70253 9.2961C5.86249 9.45606 5.86249 9.71583 5.70253 9.87579C5.62323 9.95508 5.51796 9.9961 5.41269 9.9961Z" fill="#F7B21B"/>
</g>
<g opacity="0.9">
<path d="M8.4697 9.31796C8.36443 9.31796 8.25916 9.27832 8.17986 9.19765C8.0199 9.03769 8.0199 8.77793 8.17986 8.61796L13.2986 3.49921C13.4586 3.33925 13.7184 3.33925 13.8783 3.49921C14.0383 3.65918 14.0383 3.91894 13.8783 4.0789L8.75955 9.19765C8.68025 9.27832 8.57498 9.31796 8.4697 9.31796Z" fill="#236EB4"/>
</g>
<g opacity="0.9">
<path d="M8.4697 6.93906C8.36443 6.93906 8.25916 6.89941 8.17986 6.81875C8.0199 6.65879 8.0199 6.39902 8.17986 6.23906L11.8193 2.59961L11.2096 1.98984L8.76092 4.43848C8.60095 4.59844 8.34119 4.59844 8.18123 4.43848C8.02126 4.27852 8.02126 4.01875 8.18123 3.85879L10.9197 1.12031C10.9963 1.04375 11.1016 1 11.2096 1C11.3189 1 11.4228 1.04375 11.4994 1.12031L12.6889 2.30977C12.8488 2.46973 12.8488 2.72949 12.6889 2.88945L8.75955 6.81875C8.68025 6.89805 8.57498 6.93906 8.4697 6.93906Z" fill="#236EB4"/>
</g>
<g opacity="0.9">
<path d="M5.41544 7.61308C5.31017 7.61308 5.20489 7.57343 5.12559 7.49277C4.96563 7.33281 4.96563 7.07304 5.12559 6.91308L8.17991 3.85879C8.33987 3.69883 8.59964 3.69883 8.7596 3.85879C8.91956 4.01875 8.91956 4.27851 8.7596 4.43847L5.70665 7.49277C5.62599 7.57343 5.52071 7.61308 5.41544 7.61308Z" fill="#049949"/>
</g>
<g opacity="0.9">
<path d="M5.41268 9.99609C5.30741 9.99609 5.20214 9.95644 5.12284 9.87578C4.96288 9.71582 4.96288 9.45605 5.12284 9.29609L8.17987 6.23906C8.33983 6.0791 8.5996 6.0791 8.75956 6.23906C8.91952 6.39902 8.91952 6.65878 8.75956 6.81875L5.70253 9.87578C5.62323 9.95507 5.51796 9.99609 5.41268 9.99609Z" fill="#049949"/>
</g>
<g opacity="0.9">
<path d="M5.41268 12.375C5.30741 12.375 5.20214 12.3354 5.12284 12.2547C4.96288 12.0947 4.96288 11.835 5.12284 11.675L8.17987 8.61799C8.33983 8.45803 8.5996 8.45803 8.75956 8.61799C8.91952 8.77795 8.91952 9.03772 8.75956 9.19768L5.70253 12.2547C5.62323 12.3354 5.51796 12.375 5.41268 12.375Z" fill="#049949"/>
</g>
<g opacity="0.9">
<path d="M2.79042 9.75276C2.68515 9.75276 2.57988 9.71312 2.50058 9.63245L0.121675 7.25353C0.0451123 7.17697 0.00136232 7.0717 0.00136232 6.96369C0.00136232 6.85568 0.0451123 6.75041 0.121675 6.67384L2.50058 4.29493C2.66054 4.13497 2.92031 4.13497 3.08027 4.29493C3.24023 4.45489 3.24023 4.71466 3.08027 4.87462L0.991206 6.96369L3.08027 9.05276C3.24023 9.21272 3.24023 9.47249 3.08027 9.63245C3.00097 9.71312 2.8957 9.75276 2.79042 9.75276Z" fill="#E32628"/>
</g>
</g>
<defs>
<clipPath id="clip0_7_93">
<rect width="14" height="11.375" fill="white" transform="translate(0 1)"/>
</clipPath>
</defs>
</svg>
