<svg width="14" height="14" viewBox="0 0 14 14" fill="none" xmlns="http://www.w3.org/2000/svg">
<g clip-path="url(#clip0_15_1941)">
<g clip-path="url(#clip1_15_1941)">
<g clip-path="url(#clip2_15_1941)">
<g opacity="0.9">
<path opacity="0.9" d="M4.41738 4.93965H2.89707C2.67012 4.93965 2.48691 4.75644 2.48691 4.52949C2.48691 4.30254 2.67012 4.11934 2.89707 4.11934H4.41738C4.64434 4.11934 4.82754 4.30254 4.82754 4.52949C4.82754 4.75644 4.64434 4.93965 4.41738 4.93965Z" fill="#226DB4"/>
</g>
<g opacity="0.9">
<path opacity="0.9" d="M10.8719 13.151H1.25508C0.57832 13.151 0.0273438 12.6 0.0273438 11.9233V2.07676C0.0273438 1.4 0.57832 0.849024 1.25508 0.849024H11.6854C11.9123 0.849024 12.0955 1.03223 12.0955 1.25918C12.0955 1.48613 11.9123 1.66934 11.6854 1.66934H1.25508C1.03086 1.66934 0.847656 1.85254 0.847656 2.07676V11.9233C0.847656 12.1475 1.03086 12.3307 1.25508 12.3307H10.8719C11.0961 12.3307 11.2793 12.1475 11.2793 11.9233V7.77247C11.2793 7.54552 11.4625 7.36232 11.6895 7.36232C11.9164 7.36232 12.0996 7.54552 12.0996 7.77247V11.9233C12.0996 12.6 11.5486 13.151 10.8719 13.151Z" fill="#226DB4"/>
</g>
<g opacity="0.9">
<path opacity="0.9" d="M2.8834 7.42793C2.65644 7.42793 2.47324 7.24473 2.47324 7.01777C2.47324 6.79082 2.65644 6.60762 2.8834 6.60762L6.77441 6.60352C7.00137 6.60352 7.18457 6.78672 7.18457 7.01367C7.18457 7.24062 7.00137 7.42383 6.77441 7.42383L2.8834 7.42793Z" fill="#226DB4"/>
</g>
<g opacity="0.9">
<path opacity="0.9" d="M2.8834 9.87246C2.65644 9.87246 2.47324 9.68926 2.47324 9.4623C2.47324 9.23535 2.65644 9.05215 2.8834 9.05215L6.77441 9.04805C7.00137 9.04805 7.18457 9.23125 7.18457 9.4582C7.18457 9.68516 7.00137 9.86836 6.77441 9.86836L2.8834 9.87246Z" fill="#226DB4"/>
</g>
<g opacity="0.9">
<path opacity="0.9" d="M13.5625 7.44569C13.4941 7.44569 13.4258 7.42928 13.3643 7.3951L11.0879 6.14276C11.0865 6.14276 11.0852 6.14139 11.0838 6.14139L8.86348 4.89042C8.73496 4.81796 8.65566 4.68261 8.6543 4.53495C8.6543 4.3873 8.73223 4.25058 8.85938 4.17812L11.1344 2.87109L13.3533 1.56406C13.4805 1.48887 13.6377 1.48887 13.7648 1.56133C13.892 1.63379 13.9713 1.77051 13.9713 1.9168V7.0369C13.9713 7.18182 13.8947 7.3158 13.7703 7.38963C13.7074 7.42655 13.635 7.44569 13.5625 7.44569ZM11.4857 5.42499L13.1523 6.34237V2.6332L11.55 3.57656C11.5486 3.57792 11.5473 3.57792 11.5459 3.57929L9.89434 4.52812L11.4857 5.42499Z" fill="#226DB4"/>
</g>
</g>
</g>
</g>
<defs>
<clipPath id="clip0_15_1941">
<rect width="14" height="14" fill="white"/>
</clipPath>
<clipPath id="clip1_15_1941">
<rect width="14" height="14" fill="white"/>
</clipPath>
<clipPath id="clip2_15_1941">
<rect width="14" height="14" fill="white"/>
</clipPath>
</defs>
</svg>
