<?xml version="1.0" standalone="no"?>
<!DOCTYPE svg PUBLIC "-//W3C//DTD SVG 20010904//EN"
 "http://www.w3.org/TR/2001/REC-SVG-20010904/DTD/svg10.dtd">
<svg version="1.0" xmlns="http://www.w3.org/2000/svg"
 width="1600.000000pt" height="1600.000000pt" viewBox="0 0 1600.000000 1600.000000"
 preserveAspectRatio="xMidYMid meet">

<g transform="translate(0.000000,1600.000000) scale(0.100000,-0.100000)"
fill="#000000" stroke="none">
<path d="M7740 14494 c-317 -20 -411 -28 -572 -49 -1434 -186 -2739 -828
-3762 -1851 -1107 -1107 -1761 -2530 -1888 -4109 -16 -206 -16 -764 0 -970
127 -1579 781 -3002 1888 -4109 1107 -1107 2530 -1761 4109 -1888 206 -16 764
-16 970 0 1579 127 3002 781 4109 1888 1107 1107 1761 2530 1888 4109 16 206
16 764 0 970 -127 1579 -781 3002 -1888 4109 -1091 1091 -2507 1750 -4044
1881 -167 14 -693 27 -810 19z m710 -1014 c831 -74 1573 -302 2265 -698 1014
-580 1817 -1459 2295 -2512 260 -573 410 -1155 472 -1830 26 -292 14 -797 -28
-1140 -149 -1210 -723 -2363 -1605 -3225 -799 -781 -1773 -1286 -2859 -1484
-349 -63 -603 -85 -990 -85 -387 0 -641 22 -990 85 -1086 198 -2060 703 -2859
1484 -738 721 -1262 1645 -1500 2645 -102 428 -145 812 -145 1280 0 468 43
852 145 1280 238 1000 762 1924 1500 2645 799 781 1773 1286 2859 1484 237 43
398 61 740 85 95 7 580 -3 700 -14z"/>
<path d="M7740 10994 c-429 -37 -771 -130 -1135 -309 -309 -152 -537 -315
-781 -559 -244 -244 -407 -472 -559 -781 -158 -322 -245 -613 -297 -995 -7
-56 -12 -199 -12 -350 0 -257 6 -341 45 -555 85 -473 301 -949 603 -1330 102
-128 333 -359 461 -461 320 -253 713 -449 1109 -554 269 -71 464 -95 771 -94
268 0 393 13 620 60 748 158 1421 618 1857 1270 87 130 218 359 218 380 0 5
-199 111 -442 236 l-442 226 -52 -98 c-380 -726 -1157 -1151 -1955 -1069 -799
81 -1448 596 -1693 1339 -352 1069 202 2201 1244 2544 471 155 960 138 1405
-49 418 -175 784 -513 999 -925 l52 -98 442 226 c243 125 442 231 442 236 0
21 -131 250 -218 380 -485 725 -1238 1195 -2097 1311 -114 15 -488 27 -585 19z"/>
</g>
</svg>
