<svg width="14" height="14" viewBox="0 0 14 14" fill="none" xmlns="http://www.w3.org/2000/svg">
<g clip-path="url(#clip0_10_1)">
<g clip-path="url(#clip1_10_1)">
<path fill-rule="evenodd" clip-rule="evenodd" d="M7.00006 0C3.13454 0 0 3.13396 0 7.00006C0 10.0929 2.00573 12.7168 4.78707 13.6424C5.13691 13.7072 5.26535 13.4905 5.26535 13.3057C5.26535 13.1387 5.25885 12.5873 5.25584 12.0024C3.30842 12.4258 2.89749 11.1765 2.89749 11.1765C2.57906 10.3674 2.12025 10.1522 2.12025 10.1522C1.48514 9.71776 2.16813 9.72668 2.16813 9.72668C2.87106 9.77606 3.24118 10.448 3.24118 10.448C3.86552 11.5182 4.87876 11.2088 5.27821 11.0299C5.34104 10.5775 5.52245 10.2687 5.72264 10.0939C4.16783 9.9169 2.53339 9.31668 2.53339 6.63445C2.53339 5.87021 2.80684 5.24575 3.25463 4.75554C3.18195 4.57923 2.94235 3.86726 3.32244 2.90305C3.32244 2.90305 3.91026 2.71492 5.24795 3.62058C5.80633 3.46549 6.40517 3.3877 7.00006 3.38504C7.59495 3.3877 8.19424 3.46549 8.75366 3.62058C10.0897 2.71492 10.6767 2.90305 10.6767 2.90305C11.0578 3.86726 10.8181 4.57923 10.7454 4.75554C11.1942 5.24575 11.4658 5.87021 11.4658 6.63445C11.4658 9.32306 9.82823 9.91505 8.26947 10.0883C8.52055 10.3056 8.74428 10.7316 8.74428 11.3847C8.74428 12.3213 8.73616 13.0751 8.73616 13.3057C8.73616 13.4919 8.86217 13.7102 9.21699 13.6415C11.9968 12.7148 14 10.0918 14 7.00006C14 3.13396 10.8659 0 7.00006 0Z" fill="#161514"/>
</g>
</g>
<defs>
<clipPath id="clip0_10_1">
<rect width="14" height="14" fill="white"/>
</clipPath>
<clipPath id="clip1_10_1">
<rect width="14" height="14" fill="white"/>
</clipPath>
</defs>
</svg>
