<svg width="436" height="301" viewBox="0 0 436 301" fill="none" xmlns="http://www.w3.org/2000/svg">
<g clip-path="url(#clip0_6_294)">
<path d="M432.94 184.962C432.94 184.962 430.533 108.88 357.424 105.134C274.689 100.888 279.834 187.126 279.834 187.126C279.834 187.126 302.738 175.639 351.366 177.054C407.049 178.469 432.94 184.962 432.94 184.962Z" fill="white"/>
<path d="M417.339 35.4606C413.605 19.5616 394.767 34.7947 362.154 25.5549C335.018 17.8135 326.139 -2.58056 317.011 4.49494C307.882 11.5704 320.579 34.7947 359.582 48.0301C388.626 57.9358 421.654 54.0234 417.339 35.4606Z" fill="#231F20"/>
<path d="M20.2586 40.705C22.5822 24.5562 42.7474 38.1245 74.3645 25.9713C100.754 15.8991 107.807 -5.16092 117.516 1.08216C127.226 7.40849 116.521 31.6317 78.8456 48.1967C50.7969 60.5996 17.5202 59.5175 20.2586 40.705Z" fill="#231F20"/>
<path d="M3.08087 182.132C3.08087 182.132 6.56622 106.049 79.5925 103.302C162.328 100.139 156.104 186.294 156.104 186.294C156.104 186.294 133.366 174.557 84.7375 175.223C29.055 175.972 3.08087 182.132 3.08087 182.132Z" fill="white"/>
<path d="M361.822 104.468C403.315 119.618 405.555 167.481 405.389 179.884C422.899 183.131 431.28 187.459 431.28 187.459C431.28 187.459 437.172 106.299 361.822 104.468Z" fill="#EFEFEF"/>
<path d="M86.5632 103.219C128.055 118.369 130.296 166.233 130.13 178.635C147.64 181.882 156.021 186.21 156.021 186.21C156.021 186.21 161.996 105.05 86.5632 103.219Z" fill="#EFEFEF"/>
<path d="M119.674 167.897C119.674 145.672 101.749 127.692 79.5925 127.692C57.4356 127.692 39.511 145.672 39.511 167.897C39.511 171.144 39.9259 174.39 40.6728 177.387C52.4566 176.471 67.0618 175.639 84.7375 175.389C97.932 175.223 109.135 175.972 118.595 177.054C119.342 174.224 119.674 171.144 119.674 167.897Z" fill="#231F20"/>
<path d="M70.4642 165.567C77.6138 165.567 83.4098 159.753 83.4098 152.581C83.4098 145.409 77.6138 139.595 70.4642 139.595C63.3146 139.595 57.5186 145.409 57.5186 152.581C57.5186 159.753 63.3146 165.567 70.4642 165.567Z" fill="white"/>
<path d="M316.513 169.229C316.845 147.004 335.018 129.273 357.092 129.606C379.249 129.939 396.925 148.169 396.593 170.311C396.51 173.558 396.095 176.804 395.348 179.801C383.564 178.719 368.959 177.72 351.366 177.22C338.172 176.887 326.969 177.47 317.509 178.469C316.845 175.472 316.513 172.392 316.513 169.229Z" fill="#231F20"/>
<path d="M378.871 154.698C378.966 147.527 373.248 141.636 366.099 141.541C358.95 141.446 353.078 147.182 352.983 154.353C352.888 161.524 358.606 167.414 365.755 167.51C372.904 167.605 378.776 161.869 378.871 154.698Z" fill="white"/>
<path d="M349.541 285.85C348.213 285.85 346.885 285.184 346.138 284.019C346.055 283.935 337.923 272.115 320.081 260.545C303.733 249.89 275.519 237.237 234.358 237.237C234.192 237.237 234.026 237.237 233.86 237.237C170.875 237.404 123.989 283.02 123.491 283.519C121.832 285.101 119.259 285.101 117.599 283.519C116.023 281.854 116.023 279.274 117.599 277.609C118.097 277.11 130.13 265.289 150.461 253.303C169.299 242.232 199.007 228.996 233.778 228.913C233.943 228.913 234.109 228.913 234.358 228.913C277.842 228.913 307.634 242.481 324.977 253.802C344.064 266.288 352.611 278.858 353.026 279.357C354.271 281.272 353.856 283.852 351.947 285.101C351.117 285.6 350.288 285.85 349.541 285.85Z" fill="#231F20"/>
<path d="M106.147 263.791C99.5917 274.363 98.4299 288.014 103.16 299.502C103.575 300.501 104.571 301.25 105.733 300.917C106.728 300.667 107.641 299.418 107.143 298.336C102.828 287.765 103.741 275.528 109.716 265.872C111.127 263.625 107.558 261.46 106.147 263.791Z" fill="#231F20"/>
<path d="M354.271 267.038C362.154 274.696 365.142 286.766 361.905 297.254C361.076 299.835 365.142 300.917 365.889 298.336C369.623 286.433 366.138 272.781 357.175 264.041C355.267 262.21 352.279 265.206 354.271 267.038Z" fill="#231F20"/>
<path d="M141.831 163.985C140.752 162.986 139.673 162.07 138.345 161.571C136.271 160.822 134.03 161.321 131.873 160.988C127.06 160.073 124.238 155.078 120.006 152.498C113.865 148.752 105.484 150.999 100.422 156.16C97.3511 159.323 94.5297 163.819 90.1315 163.902C88.0569 163.985 86.0653 162.986 83.9907 162.653C78.6796 161.737 73.7006 165.067 68.4726 166.316C63.4935 167.564 58.0165 166.898 53.4524 164.568C47.8924 161.654 42.5814 156.244 36.6066 157.992C30.8806 159.74 28.7231 167.231 23.0801 169.229C19.0969 170.728 14.2838 168.896 10.4665 170.728C6.56622 172.642 5.15549 177.387 4.24266 181.715L79.6755 175.389L153.2 183.463C153.283 175.639 147.474 169.229 141.831 163.985Z" fill="#7ECDEC"/>
<path d="M156.104 189.291C155.606 189.291 155.108 189.207 154.693 188.958C154.444 188.874 131.873 177.554 84.8205 178.219C30.2168 178.969 4.07669 184.962 3.74475 185.045C2.83192 185.295 1.83611 185.045 1.08925 184.379C0.342393 183.797 -0.0725285 182.798 0.0104559 181.882C0.0104559 181.05 1.00627 161.987 11.2133 142.259C20.6736 123.863 40.2579 101.638 79.5095 100.139C104.239 99.2236 123.823 105.966 137.516 120.284C161.83 145.506 159.257 184.796 159.175 186.46C159.092 187.459 158.511 188.375 157.598 188.958C157.183 189.207 156.602 189.291 156.104 189.291ZM88.8867 172.06C123.74 172.06 144.652 178.386 153.117 181.632C153.034 170.977 150.959 143.092 133.034 124.529C120.504 111.543 102.579 105.467 79.6755 106.299C50.548 107.381 29.3039 120.45 16.6073 145.089C9.71963 158.491 7.31308 171.81 6.48324 178.219C15.8605 176.471 41.1707 172.642 84.6545 172.06C86.1483 172.06 87.559 172.06 88.8867 172.06Z" fill="#231F20"/>
<path d="M296.763 167.232C302.406 166.482 307.965 169.646 313.608 168.896C318.753 168.147 322.82 164.318 327.467 161.904C332.695 159.157 338.836 158.158 344.645 159.157C352.86 160.572 360.578 165.733 368.876 164.568C376.262 163.486 381.822 157.576 388.46 154.329C397.174 150.084 408.045 150.583 416.343 155.661C424.642 160.739 430.036 170.228 430.119 179.967C430.119 180.717 430.119 181.466 429.621 182.049C429.04 182.798 427.961 182.881 427.048 182.881C423.646 182.881 420.326 182.298 416.924 181.716C387.962 177.054 358.42 176.471 329.044 177.553C321.243 177.803 313.359 178.219 305.559 179.468C297.592 180.717 290.29 184.629 282.655 186.044C281.659 178.303 289.128 168.23 296.763 167.232Z" fill="#7ECDEC"/>
<path d="M279.917 190.123C279.419 190.123 278.838 189.956 278.34 189.707C277.427 189.207 276.846 188.292 276.846 187.209C276.763 185.545 274.772 146.255 299.335 121.366C313.277 107.298 332.861 100.722 357.673 102.054C396.842 104.052 416.094 126.527 425.388 145.089C435.347 164.984 436.01 184.046 436.093 184.879C436.093 185.878 435.678 186.793 434.932 187.376C434.185 187.959 433.189 188.208 432.276 187.959C432.027 187.875 405.887 181.549 351.366 180.051C304.314 178.719 281.576 189.707 281.328 189.873C280.83 190.04 280.332 190.123 279.917 190.123ZM351.698 107.964C331.45 107.964 315.268 113.874 303.65 125.611C285.56 143.924 283.07 171.727 282.821 182.465C291.701 179.218 314.023 172.809 351.366 173.891C394.85 175.056 420.16 179.218 429.455 181.05C428.708 174.557 426.467 161.072 419.663 147.587C407.215 122.864 386.22 109.629 357.175 108.13C355.433 108.047 353.524 107.964 351.698 107.964Z" fill="#231F20"/>
</g>
<defs>
<clipPath id="clip0_6_294">
<rect width="436" height="301" fill="white"/>
</clipPath>
</defs>
</svg>
